<?xml version="1.0" encoding="utf-8" standalone="no"?>
<!DOCTYPE svg PUBLIC "-//W3C//DTD SVG 1.1//EN"
  "http://www.w3.org/Graphics/SVG/1.1/DTD/svg11.dtd">
<svg xmlns:xlink="http://www.w3.org/1999/xlink" width="526.79952pt" height="191.999412pt" viewBox="0 0 526.79952 191.999412" xmlns="http://www.w3.org/2000/svg" version="1.1">
 <metadata>
  <rdf:RDF xmlns:dc="http://purl.org/dc/elements/1.1/" xmlns:cc="http://creativecommons.org/ns#" xmlns:rdf="http://www.w3.org/1999/02/22-rdf-syntax-ns#">
   <cc:Work>
    <dc:type rdf:resource="http://purl.org/dc/dcmitype/StillImage"/>
    <dc:date>2026-07-19T17:00:46.057683</dc:date>
    <dc:format>image/svg+xml</dc:format>
    <dc:creator>
     <cc:Agent>
      <dc:title>Matplotlib v3.10.3, https://matplotlib.org/</dc:title>
     </cc:Agent>
    </dc:creator>
   </cc:Work>
  </rdf:RDF>
 </metadata>
 <defs>
  <style type="text/css">*{stroke-linejoin: round; stroke-linecap: butt}</style>
 </defs>
 <g id="figure_1">
  <g id="patch_1">
   <path d="M 0 191.999412 
L 526.79952 191.999412 
L 526.79952 0 
L 0 0 
z
" style="fill: #ffffff"/>
  </g>
  <g id="axes_1">
   <g id="patch_2">
    <path d="M 47.506938 160.390193 
L 172.081937 160.390193 
L 172.081937 17.221788 
L 47.506938 17.221788 
z
" style="fill: #ffffff"/>
   </g>
   <g id="matplotlib.axis_1">
    <g id="xtick_1">
     <g id="line2d_1">
      <defs>
       <path id="m0a20cc2eb8" d="M 0 0 
L 0 3 
" style="stroke: #000000; stroke-width: 0.7"/>
      </defs>
      <g>
       <use xlink:href="#m0a20cc2eb8" x="53.169437" y="160.390193" style="stroke: #000000; stroke-width: 0.7"/>
      </g>
     </g>
     <g id="text_1">
      <text style="font-size: 7px; font-family: 'Arial', 'DejaVu Sans', sans-serif; text-anchor: middle" x="53.169437" y="171.900662" transform="rotate(-0 53.169437 171.900662)">12x9</text>
     </g>
    </g>
    <g id="xtick_2">
     <g id="line2d_2">
      <g>
       <use xlink:href="#m0a20cc2eb8" x="90.919437" y="160.390193" style="stroke: #000000; stroke-width: 0.7"/>
      </g>
     </g>
     <g id="text_2">
      <text style="font-size: 7px; font-family: 'Arial', 'DejaVu Sans', sans-serif; text-anchor: middle" x="90.919437" y="171.900662" transform="rotate(-0 90.919437 171.900662)">18x14</text>
     </g>
    </g>
    <g id="xtick_3">
     <g id="line2d_3">
      <g>
       <use xlink:href="#m0a20cc2eb8" x="128.669437" y="160.390193" style="stroke: #000000; stroke-width: 0.7"/>
      </g>
     </g>
     <g id="text_3">
      <text style="font-size: 7px; font-family: 'Arial', 'DejaVu Sans', sans-serif; text-anchor: middle" x="128.669437" y="171.900662" transform="rotate(-0 128.669437 171.900662)">24x18</text>
     </g>
    </g>
    <g id="xtick_4">
     <g id="line2d_4">
      <g>
       <use xlink:href="#m0a20cc2eb8" x="166.419437" y="160.390193" style="stroke: #000000; stroke-width: 0.7"/>
      </g>
     </g>
     <g id="text_4">
      <text style="font-size: 7px; font-family: 'Arial', 'DejaVu Sans', sans-serif; text-anchor: middle" x="166.419437" y="171.900662" transform="rotate(-0 166.419437 171.900662)">30x22</text>
     </g>
    </g>
    <g id="text_5">
     <text style="font-size: 8px; font-family: 'Arial', 'DejaVu Sans', sans-serif; text-anchor: middle" x="109.794437" y="183.018162" transform="rotate(-0 109.794437 183.018162)">Nominal grid</text>
    </g>
   </g>
   <g id="matplotlib.axis_2">
    <g id="ytick_1">
     <g id="line2d_5">
      <defs>
       <path id="m751dc17980" d="M 0 0 
L -3 0 
" style="stroke: #000000; stroke-width: 0.7"/>
      </defs>
      <g>
       <use xlink:href="#m751dc17980" x="47.506938" y="150.958863" style="stroke: #000000; stroke-width: 0.7"/>
      </g>
     </g>
     <g id="text_6">
      <text style="font-size: 7px; font-family: 'Arial', 'DejaVu Sans', sans-serif; text-anchor: end" x="41.006938" y="153.464097" transform="rotate(-0 41.006938 153.464097)">−2.5</text>
     </g>
    </g>
    <g id="ytick_2">
     <g id="line2d_6">
      <g>
       <use xlink:href="#m751dc17980" x="47.506938" y="125.512979" style="stroke: #000000; stroke-width: 0.7"/>
      </g>
     </g>
     <g id="text_7">
      <text style="font-size: 7px; font-family: 'Arial', 'DejaVu Sans', sans-serif; text-anchor: end" x="41.006938" y="128.018213" transform="rotate(-0 41.006938 128.018213)">−2.0</text>
     </g>
    </g>
    <g id="ytick_3">
     <g id="line2d_7">
      <g>
       <use xlink:href="#m751dc17980" x="47.506938" y="100.067095" style="stroke: #000000; stroke-width: 0.7"/>
      </g>
     </g>
     <g id="text_8">
      <text style="font-size: 7px; font-family: 'Arial', 'DejaVu Sans', sans-serif; text-anchor: end" x="41.006938" y="102.572329" transform="rotate(-0 41.006938 102.572329)">−1.5</text>
     </g>
    </g>
    <g id="ytick_4">
     <g id="line2d_8">
      <g>
       <use xlink:href="#m751dc17980" x="47.506938" y="74.621211" style="stroke: #000000; stroke-width: 0.7"/>
      </g>
     </g>
     <g id="text_9">
      <text style="font-size: 7px; font-family: 'Arial', 'DejaVu Sans', sans-serif; text-anchor: end" x="41.006938" y="77.126445" transform="rotate(-0 41.006938 77.126445)">−1.0</text>
     </g>
    </g>
    <g id="ytick_5">
     <g id="line2d_9">
      <g>
       <use xlink:href="#m751dc17980" x="47.506938" y="49.175327" style="stroke: #000000; stroke-width: 0.7"/>
      </g>
     </g>
     <g id="text_10">
      <text style="font-size: 7px; font-family: 'Arial', 'DejaVu Sans', sans-serif; text-anchor: end" x="41.006938" y="51.680561" transform="rotate(-0 41.006938 51.680561)">−0.5</text>
     </g>
    </g>
    <g id="ytick_6">
     <g id="line2d_10">
      <g>
       <use xlink:href="#m751dc17980" x="47.506938" y="23.729443" style="stroke: #000000; stroke-width: 0.7"/>
      </g>
     </g>
     <g id="text_11">
      <text style="font-size: 7px; font-family: 'Arial', 'DejaVu Sans', sans-serif; text-anchor: end" x="41.006938" y="26.234678" transform="rotate(-0 41.006938 26.234678)">0.0</text>
     </g>
    </g>
    <g id="text_12">
     <text style="font-size: 8px; font-family: 'Arial', 'DejaVu Sans', sans-serif" transform="translate(12.92625 143.264741) rotate(-90)">DAS-FC minus homoscedastic</text>
     <text style="font-size: 8px; font-family: 'Arial', 'DejaVu Sans', sans-serif" transform="translate(21.50475 123.030366) rotate(-90)">interval score (mm)</text>
    </g>
   </g>
   <g id="LineCollection_1">
    <path d="M 53.169437 153.882539 
L 53.169437 136.066445 
" clip-path="url(#pbccdf3fc20)" style="fill: none; stroke: #0072b2; stroke-width: 1.5"/>
    <path d="M 90.919437 147.21057 
L 90.919437 134.567761 
" clip-path="url(#pbccdf3fc20)" style="fill: none; stroke: #0072b2; stroke-width: 1.5"/>
    <path d="M 128.669437 123.91455 
L 128.669437 113.924728 
" clip-path="url(#pbccdf3fc20)" style="fill: none; stroke: #0072b2; stroke-width: 1.5"/>
    <path d="M 166.419437 106.498427 
L 166.419437 97.270544 
" clip-path="url(#pbccdf3fc20)" style="fill: none; stroke: #0072b2; stroke-width: 1.5"/>
   </g>
   <g id="line2d_11">
    <defs>
     <path id="mbc9af367eb" d="M 2.5 0 
L -2.5 -0 
" style="stroke: #0072b2"/>
    </defs>
    <g clip-path="url(#pbccdf3fc20)">
     <use xlink:href="#mbc9af367eb" x="53.169437" y="153.882539" style="fill: #0072b2; stroke: #0072b2"/>
     <use xlink:href="#mbc9af367eb" x="90.919437" y="147.21057" style="fill: #0072b2; stroke: #0072b2"/>
     <use xlink:href="#mbc9af367eb" x="128.669437" y="123.91455" style="fill: #0072b2; stroke: #0072b2"/>
     <use xlink:href="#mbc9af367eb" x="166.419437" y="106.498427" style="fill: #0072b2; stroke: #0072b2"/>
    </g>
   </g>
   <g id="line2d_12">
    <g clip-path="url(#pbccdf3fc20)">
     <use xlink:href="#mbc9af367eb" x="53.169437" y="136.066445" style="fill: #0072b2; stroke: #0072b2"/>
     <use xlink:href="#mbc9af367eb" x="90.919437" y="134.567761" style="fill: #0072b2; stroke: #0072b2"/>
     <use xlink:href="#mbc9af367eb" x="128.669437" y="113.924728" style="fill: #0072b2; stroke: #0072b2"/>
     <use xlink:href="#mbc9af367eb" x="166.419437" y="97.270544" style="fill: #0072b2; stroke: #0072b2"/>
    </g>
   </g>
   <g id="line2d_13">
    <path d="M 47.506938 23.729443 
L 172.081937 23.729443 
" clip-path="url(#pbccdf3fc20)" style="fill: none; stroke: #000000; stroke-width: 0.7; stroke-linecap: square"/>
   </g>
   <g id="line2d_14">
    <path d="M 53.169437 144.202656 
L 90.919437 140.446787 
L 128.669437 118.593268 
L 166.419437 101.431 
" clip-path="url(#pbccdf3fc20)" style="fill: none; stroke: #0072b2; stroke-width: 1.5; stroke-linecap: square"/>
    <defs>
     <path id="m82afa5e774" d="M 0 2 
C 0.530406 2 1.03916 1.789267 1.414214 1.414214 
C 1.789267 1.03916 2 0.530406 2 0 
C 2 -0.530406 1.789267 -1.03916 1.414214 -1.414214 
C 1.03916 -1.789267 0.530406 -2 0 -2 
C -0.530406 -2 -1.03916 -1.789267 -1.414214 -1.414214 
C -1.789267 -1.03916 -2 -0.530406 -2 0 
C -2 0.530406 -1.789267 1.03916 -1.414214 1.414214 
C -1.03916 1.789267 -0.530406 2 0 2 
z
" style="stroke: #0072b2"/>
    </defs>
    <g clip-path="url(#pbccdf3fc20)">
     <use xlink:href="#m82afa5e774" x="53.169437" y="144.202656" style="fill: #0072b2; stroke: #0072b2"/>
     <use xlink:href="#m82afa5e774" x="90.919437" y="140.446787" style="fill: #0072b2; stroke: #0072b2"/>
     <use xlink:href="#m82afa5e774" x="128.669437" y="118.593268" style="fill: #0072b2; stroke: #0072b2"/>
     <use xlink:href="#m82afa5e774" x="166.419437" y="101.431" style="fill: #0072b2; stroke: #0072b2"/>
    </g>
   </g>
   <g id="patch_3">
    <path d="M 47.506938 160.390193 
L 47.506938 17.221788 
" style="fill: none; stroke: #000000; stroke-width: 0.7; stroke-linejoin: miter; stroke-linecap: square"/>
   </g>
   <g id="patch_4">
    <path d="M 47.506938 160.390193 
L 172.081937 160.390193 
" style="fill: none; stroke: #000000; stroke-width: 0.7; stroke-linejoin: miter; stroke-linecap: square"/>
   </g>
   <g id="text_13">
    <text style="font-size: 6.2px; font-family: 'Arial', 'DejaVu Sans', sans-serif; text-anchor: start; fill: #666666" x="49.998437" y="156.095141" transform="rotate(-0 49.998437 156.095141)">95% domain-stratified bootstrap CI</text>
   </g>
   <g id="text_14">
    <text style="font-weight: 700; font-size: 9px; font-family: 'Arial', 'DejaVu Sans', sans-serif; text-anchor: start" x="31.312188" y="13.642031" transform="rotate(-0 31.312188 13.642031)">a</text>
   </g>
  </g>
  <g id="axes_2">
   <g id="patch_5">
    <path d="M 209.595354 160.390193 
L 334.170354 160.390193 
L 334.170354 17.221788 
L 209.595354 17.221788 
z
" style="fill: #ffffff"/>
   </g>
   <g id="matplotlib.axis_3">
    <g id="xtick_5">
     <g id="line2d_15">
      <g>
       <use xlink:href="#m0a20cc2eb8" x="216.476617" y="160.390193" style="stroke: #000000; stroke-width: 0.7"/>
      </g>
     </g>
     <g id="text_15">
      <text style="font-size: 7px; font-family: 'Arial', 'DejaVu Sans', sans-serif; text-anchor: middle" x="216.476617" y="171.900662" transform="rotate(-0 216.476617 171.900662)">15</text>
     </g>
    </g>
    <g id="xtick_6">
     <g id="line2d_16">
      <g>
       <use xlink:href="#m0a20cc2eb8" x="251.953509" y="160.390193" style="stroke: #000000; stroke-width: 0.7"/>
      </g>
     </g>
     <g id="text_16">
      <text style="font-size: 7px; font-family: 'Arial', 'DejaVu Sans', sans-serif; text-anchor: middle" x="251.953509" y="171.900662" transform="rotate(-0 251.953509 171.900662)">20</text>
     </g>
    </g>
    <g id="xtick_7">
     <g id="line2d_17">
      <g>
       <use xlink:href="#m0a20cc2eb8" x="287.430401" y="160.390193" style="stroke: #000000; stroke-width: 0.7"/>
      </g>
     </g>
     <g id="text_17">
      <text style="font-size: 7px; font-family: 'Arial', 'DejaVu Sans', sans-serif; text-anchor: middle" x="287.430401" y="171.900662" transform="rotate(-0 287.430401 171.900662)">25</text>
     </g>
    </g>
    <g id="xtick_8">
     <g id="line2d_18">
      <g>
       <use xlink:href="#m0a20cc2eb8" x="322.907293" y="160.390193" style="stroke: #000000; stroke-width: 0.7"/>
      </g>
     </g>
     <g id="text_18">
      <text style="font-size: 7px; font-family: 'Arial', 'DejaVu Sans', sans-serif; text-anchor: middle" x="322.907293" y="171.900662" transform="rotate(-0 322.907293 171.900662)">30</text>
     </g>
    </g>
    <g id="text_19">
     <text style="font-size: 8px; font-family: 'Arial', 'DejaVu Sans', sans-serif; text-anchor: middle" x="271.882854" y="183.115662" transform="rotate(-0 271.882854 183.115662)">Mean interval width (mm)</text>
    </g>
   </g>
   <g id="matplotlib.axis_4">
    <g id="ytick_7">
     <g id="line2d_19">
      <g>
       <use xlink:href="#m751dc17980" x="209.595354" y="160.390193" style="stroke: #000000; stroke-width: 0.7"/>
      </g>
     </g>
     <g id="text_20">
      <text style="font-size: 7px; font-family: 'Arial', 'DejaVu Sans', sans-serif; text-anchor: end" x="203.095354" y="162.895428" transform="rotate(-0 203.095354 162.895428)">0.2</text>
     </g>
    </g>
    <g id="ytick_8">
     <g id="line2d_20">
      <g>
       <use xlink:href="#m751dc17980" x="209.595354" y="142.930632" style="stroke: #000000; stroke-width: 0.7"/>
      </g>
     </g>
     <g id="text_21">
      <text style="font-size: 7px; font-family: 'Arial', 'DejaVu Sans', sans-serif; text-anchor: end" x="203.095354" y="145.435866" transform="rotate(-0 203.095354 145.435866)">0.3</text>
     </g>
    </g>
    <g id="ytick_9">
     <g id="line2d_21">
      <g>
       <use xlink:href="#m751dc17980" x="209.595354" y="125.47107" style="stroke: #000000; stroke-width: 0.7"/>
      </g>
     </g>
     <g id="text_22">
      <text style="font-size: 7px; font-family: 'Arial', 'DejaVu Sans', sans-serif; text-anchor: end" x="203.095354" y="127.976305" transform="rotate(-0 203.095354 127.976305)">0.4</text>
     </g>
    </g>
    <g id="ytick_10">
     <g id="line2d_22">
      <g>
       <use xlink:href="#m751dc17980" x="209.595354" y="108.011509" style="stroke: #000000; stroke-width: 0.7"/>
      </g>
     </g>
     <g id="text_23">
      <text style="font-size: 7px; font-family: 'Arial', 'DejaVu Sans', sans-serif; text-anchor: end" x="203.095354" y="110.516743" transform="rotate(-0 203.095354 110.516743)">0.5</text>
     </g>
    </g>
    <g id="ytick_11">
     <g id="line2d_23">
      <g>
       <use xlink:href="#m751dc17980" x="209.595354" y="90.551947" style="stroke: #000000; stroke-width: 0.7"/>
      </g>
     </g>
     <g id="text_24">
      <text style="font-size: 7px; font-family: 'Arial', 'DejaVu Sans', sans-serif; text-anchor: end" x="203.095354" y="93.057181" transform="rotate(-0 203.095354 93.057181)">0.6</text>
     </g>
    </g>
    <g id="ytick_12">
     <g id="line2d_24">
      <g>
       <use xlink:href="#m751dc17980" x="209.595354" y="73.092385" style="stroke: #000000; stroke-width: 0.7"/>
      </g>
     </g>
     <g id="text_25">
      <text style="font-size: 7px; font-family: 'Arial', 'DejaVu Sans', sans-serif; text-anchor: end" x="203.095354" y="75.59762" transform="rotate(-0 203.095354 75.59762)">0.7</text>
     </g>
    </g>
    <g id="ytick_13">
     <g id="line2d_25">
      <g>
       <use xlink:href="#m751dc17980" x="209.595354" y="55.632824" style="stroke: #000000; stroke-width: 0.7"/>
      </g>
     </g>
     <g id="text_26">
      <text style="font-size: 7px; font-family: 'Arial', 'DejaVu Sans', sans-serif; text-anchor: end" x="203.095354" y="58.138058" transform="rotate(-0 203.095354 58.138058)">0.8</text>
     </g>
    </g>
    <g id="ytick_14">
     <g id="line2d_26">
      <g>
       <use xlink:href="#m751dc17980" x="209.595354" y="38.173262" style="stroke: #000000; stroke-width: 0.7"/>
      </g>
     </g>
     <g id="text_27">
      <text style="font-size: 7px; font-family: 'Arial', 'DejaVu Sans', sans-serif; text-anchor: end" x="203.095354" y="40.678497" transform="rotate(-0 203.095354 40.678497)">0.9</text>
     </g>
    </g>
    <g id="ytick_15">
     <g id="line2d_27">
      <g>
       <use xlink:href="#m751dc17980" x="209.595354" y="20.713701" style="stroke: #000000; stroke-width: 0.7"/>
      </g>
     </g>
     <g id="text_28">
      <text style="font-size: 7px; font-family: 'Arial', 'DejaVu Sans', sans-serif; text-anchor: end" x="203.095354" y="23.218935" transform="rotate(-0 203.095354 23.218935)">1.0</text>
     </g>
    </g>
    <g id="text_29">
     <text style="font-size: 8px; font-family: 'Arial', 'DejaVu Sans', sans-serif; text-anchor: middle" x="187.681604" y="88.805991" transform="rotate(-90 187.681604 88.805991)">Empirical simultaneous coverage</text>
    </g>
   </g>
   <g id="line2d_28">
    <path d="M 215.257854 147.295522 
L 328.507854 50.540452 
" clip-path="url(#p73216c2422)" style="fill: none; stroke: #0072b2; stroke-width: 1.2; stroke-linecap: square"/>
    <g clip-path="url(#p73216c2422)">
     <use xlink:href="#m82afa5e774" x="215.257854" y="147.295522" style="fill: #0072b2; stroke: #0072b2"/>
     <use xlink:href="#m82afa5e774" x="328.507854" y="50.540452" style="fill: #0072b2; stroke: #0072b2"/>
    </g>
   </g>
   <g id="line2d_29">
    <path d="M 216.694513 75.274831 
L 280.706655 25.806073 
" clip-path="url(#p73216c2422)" style="fill: none; stroke: #e69f00; stroke-width: 1.2; stroke-linecap: square"/>
    <defs>
     <path id="m4fbd30dcaf" d="M 0 2 
C 0.530406 2 1.03916 1.789267 1.414214 1.414214 
C 1.789267 1.03916 2 0.530406 2 0 
C 2 -0.530406 1.789267 -1.03916 1.414214 -1.414214 
C 1.03916 -1.789267 0.530406 -2 0 -2 
C -0.530406 -2 -1.03916 -1.789267 -1.414214 -1.414214 
C -1.789267 -1.03916 -2 -0.530406 -2 0 
C -2 0.530406 -1.789267 1.03916 -1.414214 1.414214 
C -1.03916 1.789267 -0.530406 2 0 2 
z
" style="stroke: #e69f00"/>
    </defs>
    <g clip-path="url(#p73216c2422)">
     <use xlink:href="#m4fbd30dcaf" x="216.694513" y="75.274831" style="fill: #e69f00; stroke: #e69f00"/>
     <use xlink:href="#m4fbd30dcaf" x="280.706655" y="25.806073" style="fill: #e69f00; stroke: #e69f00"/>
    </g>
   </g>
   <g id="line2d_30">
    <path d="M 209.595354 29.443481 
L 334.170354 29.443481 
" clip-path="url(#p73216c2422)" style="fill: none; stroke-dasharray: 2.59,1.12; stroke-dashoffset: 0; stroke: #000000; stroke-width: 0.7"/>
   </g>
   <g id="patch_6">
    <path d="M 209.595354 160.390193 
L 209.595354 17.221788 
" style="fill: none; stroke: #000000; stroke-width: 0.7; stroke-linejoin: miter; stroke-linecap: square"/>
   </g>
   <g id="patch_7">
    <path d="M 209.595354 160.390193 
L 334.170354 160.390193 
" style="fill: none; stroke: #000000; stroke-width: 0.7; stroke-linejoin: miter; stroke-linecap: square"/>
   </g>
   <g id="text_30">
    <text style="font-size: 6.2px; font-family: 'Arial', 'DejaVu Sans', sans-serif; text-anchor: start; fill: #0072b2" x="331.507854" y="48.540452" transform="rotate(-0 331.507854 48.540452)">fallback</text>
   </g>
   <g id="text_31">
    <text style="font-size: 6.2px; font-family: 'Arial', 'DejaVu Sans', sans-serif; text-anchor: start; fill: #e69f00" x="283.706655" y="23.806073" transform="rotate(-0 283.706655 23.806073)">fallback</text>
   </g>
   <g id="text_32">
    <text style="font-weight: 700; font-size: 9px; font-family: 'Arial', 'DejaVu Sans', sans-serif; text-anchor: start" x="193.400604" y="13.642031" transform="rotate(-0 193.400604 13.642031)">b</text>
   </g>
   <g id="legend_1">
    <g id="line2d_31">
     <path d="M 263.269729 140.837006 
L 270.069729 140.837006 
L 276.869729 140.837006 
" style="fill: none; stroke: #0072b2; stroke-width: 1.2; stroke-linecap: square"/>
     <g>
      <use xlink:href="#m82afa5e774" x="270.069729" y="140.837006" style="fill: #0072b2; stroke: #0072b2"/>
     </g>
    </g>
    <g id="text_33">
     <text style="font-size: 6.8px; font-family: 'Arial', 'DejaVu Sans', sans-serif; text-anchor: start" x="282.309729" y="143.217006" transform="rotate(-0 282.309729 143.217006)">Default unseen</text>
    </g>
    <g id="line2d_32">
     <path d="M 263.269729 150.538693 
L 270.069729 150.538693 
L 276.869729 150.538693 
" style="fill: none; stroke: #e69f00; stroke-width: 1.2; stroke-linecap: square"/>
     <g>
      <use xlink:href="#m4fbd30dcaf" x="270.069729" y="150.538693" style="fill: #e69f00; stroke: #e69f00"/>
     </g>
    </g>
    <g id="text_34">
     <text style="font-size: 6.8px; font-family: 'Arial', 'DejaVu Sans', sans-serif; text-anchor: start" x="282.309729" y="152.918693" transform="rotate(-0 282.309729 152.918693)">rbf_kink</text>
    </g>
   </g>
  </g>
  <g id="axes_3">
   <g id="patch_8">
    <path d="M 390.15952 160.390193 
L 514.73452 160.390193 
L 514.73452 17.221788 
L 390.15952 17.221788 
z
" style="fill: #ffffff"/>
   </g>
   <g id="matplotlib.axis_5">
    <g id="xtick_9">
     <g id="line2d_33">
      <g>
       <use xlink:href="#m0a20cc2eb8" x="390.15952" y="160.390193" style="stroke: #000000; stroke-width: 0.7"/>
      </g>
     </g>
     <g id="text_35">
      <text style="font-size: 7px; font-family: 'Arial', 'DejaVu Sans', sans-serif; text-anchor: middle" x="390.15952" y="171.900662" transform="rotate(-0 390.15952 171.900662)">0.0</text>
     </g>
    </g>
    <g id="xtick_10">
     <g id="line2d_34">
      <g>
       <use xlink:href="#m0a20cc2eb8" x="415.07452" y="160.390193" style="stroke: #000000; stroke-width: 0.7"/>
      </g>
     </g>
     <g id="text_36">
      <text style="font-size: 7px; font-family: 'Arial', 'DejaVu Sans', sans-serif; text-anchor: middle" x="415.07452" y="171.900662" transform="rotate(-0 415.07452 171.900662)">0.2</text>
     </g>
    </g>
    <g id="xtick_11">
     <g id="line2d_35">
      <g>
       <use xlink:href="#m0a20cc2eb8" x="439.98952" y="160.390193" style="stroke: #000000; stroke-width: 0.7"/>
      </g>
     </g>
     <g id="text_37">
      <text style="font-size: 7px; font-family: 'Arial', 'DejaVu Sans', sans-serif; text-anchor: middle" x="439.98952" y="171.900662" transform="rotate(-0 439.98952 171.900662)">0.4</text>
     </g>
    </g>
    <g id="xtick_12">
     <g id="line2d_36">
      <g>
       <use xlink:href="#m0a20cc2eb8" x="464.90452" y="160.390193" style="stroke: #000000; stroke-width: 0.7"/>
      </g>
     </g>
     <g id="text_38">
      <text style="font-size: 7px; font-family: 'Arial', 'DejaVu Sans', sans-serif; text-anchor: middle" x="464.90452" y="171.900662" transform="rotate(-0 464.90452 171.900662)">0.6</text>
     </g>
    </g>
    <g id="xtick_13">
     <g id="line2d_37">
      <g>
       <use xlink:href="#m0a20cc2eb8" x="489.81952" y="160.390193" style="stroke: #000000; stroke-width: 0.7"/>
      </g>
     </g>
     <g id="text_39">
      <text style="font-size: 7px; font-family: 'Arial', 'DejaVu Sans', sans-serif; text-anchor: middle" x="489.81952" y="171.900662" transform="rotate(-0 489.81952 171.900662)">0.8</text>
     </g>
    </g>
    <g id="xtick_14">
     <g id="line2d_38">
      <g>
       <use xlink:href="#m0a20cc2eb8" x="514.73452" y="160.390193" style="stroke: #000000; stroke-width: 0.7"/>
      </g>
     </g>
     <g id="text_40">
      <text style="font-size: 7px; font-family: 'Arial', 'DejaVu Sans', sans-serif; text-anchor: middle" x="514.73452" y="171.900662" transform="rotate(-0 514.73452 171.900662)">1.0</text>
     </g>
    </g>
    <g id="text_41">
     <text style="font-size: 8px; font-family: 'Arial', 'DejaVu Sans', sans-serif; text-anchor: middle" x="452.44702" y="183.115662" transform="rotate(-0 452.44702 183.115662)">Retained scan-pair fraction</text>
    </g>
   </g>
   <g id="matplotlib.axis_6">
    <g id="ytick_16">
     <g id="line2d_39">
      <g>
       <use xlink:href="#m751dc17980" x="390.15952" y="154.839415" style="stroke: #000000; stroke-width: 0.7"/>
      </g>
     </g>
     <g id="text_42">
      <text style="font-size: 7px; font-family: 'Arial', 'DejaVu Sans', sans-serif; text-anchor: end" x="383.65952" y="157.344649" transform="rotate(-0 383.65952 157.344649)">1.00</text>
     </g>
    </g>
    <g id="ytick_17">
     <g id="line2d_40">
      <g>
       <use xlink:href="#m751dc17980" x="390.15952" y="138.652467" style="stroke: #000000; stroke-width: 0.7"/>
      </g>
     </g>
     <g id="text_43">
      <text style="font-size: 7px; font-family: 'Arial', 'DejaVu Sans', sans-serif; text-anchor: end" x="383.65952" y="141.157701" transform="rotate(-0 383.65952 141.157701)">1.25</text>
     </g>
    </g>
    <g id="ytick_18">
     <g id="line2d_41">
      <g>
       <use xlink:href="#m751dc17980" x="390.15952" y="122.465519" style="stroke: #000000; stroke-width: 0.7"/>
      </g>
     </g>
     <g id="text_44">
      <text style="font-size: 7px; font-family: 'Arial', 'DejaVu Sans', sans-serif; text-anchor: end" x="383.65952" y="124.970753" transform="rotate(-0 383.65952 124.970753)">1.50</text>
     </g>
    </g>
    <g id="ytick_19">
     <g id="line2d_42">
      <g>
       <use xlink:href="#m751dc17980" x="390.15952" y="106.278571" style="stroke: #000000; stroke-width: 0.7"/>
      </g>
     </g>
     <g id="text_45">
      <text style="font-size: 7px; font-family: 'Arial', 'DejaVu Sans', sans-serif; text-anchor: end" x="383.65952" y="108.783805" transform="rotate(-0 383.65952 108.783805)">1.75</text>
     </g>
    </g>
    <g id="ytick_20">
     <g id="line2d_43">
      <g>
       <use xlink:href="#m751dc17980" x="390.15952" y="90.091623" style="stroke: #000000; stroke-width: 0.7"/>
      </g>
     </g>
     <g id="text_46">
      <text style="font-size: 7px; font-family: 'Arial', 'DejaVu Sans', sans-serif; text-anchor: end" x="383.65952" y="92.596857" transform="rotate(-0 383.65952 92.596857)">2.00</text>
     </g>
    </g>
    <g id="ytick_21">
     <g id="line2d_44">
      <g>
       <use xlink:href="#m751dc17980" x="390.15952" y="73.904675" style="stroke: #000000; stroke-width: 0.7"/>
      </g>
     </g>
     <g id="text_47">
      <text style="font-size: 7px; font-family: 'Arial', 'DejaVu Sans', sans-serif; text-anchor: end" x="383.65952" y="76.409909" transform="rotate(-0 383.65952 76.409909)">2.25</text>
     </g>
    </g>
    <g id="ytick_22">
     <g id="line2d_45">
      <g>
       <use xlink:href="#m751dc17980" x="390.15952" y="57.717727" style="stroke: #000000; stroke-width: 0.7"/>
      </g>
     </g>
     <g id="text_48">
      <text style="font-size: 7px; font-family: 'Arial', 'DejaVu Sans', sans-serif; text-anchor: end" x="383.65952" y="60.222961" transform="rotate(-0 383.65952 60.222961)">2.50</text>
     </g>
    </g>
    <g id="ytick_23">
     <g id="line2d_46">
      <g>
       <use xlink:href="#m751dc17980" x="390.15952" y="41.530779" style="stroke: #000000; stroke-width: 0.7"/>
      </g>
     </g>
     <g id="text_49">
      <text style="font-size: 7px; font-family: 'Arial', 'DejaVu Sans', sans-serif; text-anchor: end" x="383.65952" y="44.036013" transform="rotate(-0 383.65952 44.036013)">2.75</text>
     </g>
    </g>
    <g id="ytick_24">
     <g id="line2d_47">
      <g>
       <use xlink:href="#m751dc17980" x="390.15952" y="25.343831" style="stroke: #000000; stroke-width: 0.7"/>
      </g>
     </g>
     <g id="text_50">
      <text style="font-size: 7px; font-family: 'Arial', 'DejaVu Sans', sans-serif; text-anchor: end" x="383.65952" y="27.849065" transform="rotate(-0 383.65952 27.849065)">3.00</text>
     </g>
    </g>
    <g id="text_51">
     <text style="font-size: 8px; font-family: 'Arial', 'DejaVu Sans', sans-serif; text-anchor: middle" x="364.353114" y="88.805991" transform="rotate(-90 364.353114 88.805991)">Mean retained risk (mm)</text>
    </g>
   </g>
   <g id="line2d_48">
    <path d="M 390.419051 153.882539 
L 390.678583 145.625793 
L 390.938114 141.105319 
L 391.197645 141.613881 
L 391.457176 143.437599 
L 391.716708 144.04725 
L 391.976239 144.266395 
L 392.23577 144.7767 
L 392.754833 148.19211 
L 393.014364 147.304412 
L 393.273895 147.746303 
L 393.533426 146.842866 
L 393.792958 146.725237 
L 394.052489 146.45441 
L 394.31202 145.892916 
L 394.571551 146.069948 
L 394.831083 145.075873 
L 395.090614 145.370205 
L 395.350145 145.183075 
L 395.609676 145.587566 
L 395.869208 145.246271 
L 396.128739 145.092566 
L 396.38827 144.255967 
L 396.647801 144.660826 
L 396.907333 144.311546 
L 397.166864 144.403609 
L 397.426395 144.11787 
L 398.204989 145.070732 
L 398.46452 145.160671 
L 399.243114 144.836653 
L 400.021708 144.074587 
L 400.281239 143.20125 
L 400.54077 143.447463 
L 400.800301 143.399127 
L 401.059833 142.984081 
L 401.319364 142.949046 
L 401.578895 143.208791 
L 401.838426 142.681715 
L 402.097958 142.754212 
L 402.357489 142.536889 
L 402.61702 142.588416 
L 403.136083 142.993491 
L 403.395614 143.124189 
L 403.655145 142.964306 
L 403.914676 142.654868 
L 404.174208 142.709931 
L 404.433739 142.335145 
L 404.69327 142.335659 
L 404.952801 142.491527 
L 405.212333 142.109551 
L 405.471864 141.979464 
L 405.731395 140.901424 
L 405.990926 140.837892 
L 406.250458 139.629851 
L 406.509989 139.302996 
L 407.807645 133.291191 
L 408.067176 131.630526 
L 408.84577 128.984529 
L 409.105301 127.969919 
L 409.883895 126.935881 
L 410.143426 126.155476 
L 410.402958 124.820689 
L 410.662489 124.427435 
L 411.441083 122.547247 
L 411.700614 120.824425 
L 412.219676 119.111052 
L 412.479208 118.615415 
L 413.257801 115.771492 
L 413.517333 115.559696 
L 414.814989 111.644242 
L 415.07452 110.859707 
L 415.334051 110.560742 
L 416.112645 108.949497 
L 416.372176 108.864585 
L 416.631708 108.038863 
L 417.15077 107.93422 
L 417.669833 107.458343 
L 417.929364 107.202881 
L 418.188895 106.464152 
L 418.448426 106.614589 
L 418.707958 106.424134 
L 418.967489 106.492224 
L 419.22702 106.099841 
L 419.486551 106.249357 
L 420.784208 103.832394 
L 421.043739 103.82069 
L 421.30327 103.065864 
L 421.562801 102.71986 
L 421.822333 102.580932 
L 422.081864 102.076391 
L 422.341395 102.023769 
L 422.600926 101.765737 
L 422.860458 101.322098 
L 423.119989 101.112799 
L 424.158114 100.96336 
L 424.677176 100.339186 
L 425.196239 100.365824 
L 425.45577 100.243929 
L 425.974833 99.681992 
L 426.234364 99.768063 
L 426.753426 99.25959 
L 427.012958 98.975233 
L 427.272489 98.977012 
L 427.791551 98.77752 
L 428.310614 98.070588 
L 428.570145 98.037944 
L 429.089208 97.44389 
L 429.348739 97.469971 
L 430.127333 97.154598 
L 430.905926 97.343254 
L 431.165458 97.184658 
L 431.424989 97.237407 
L 431.944051 97.035613 
L 432.203583 97.102052 
L 432.463114 96.994627 
L 432.982176 97.050983 
L 433.241708 96.891998 
L 433.501239 96.551913 
L 433.76077 96.583491 
L 434.279833 96.211487 
L 434.539364 96.061388 
L 434.798895 96.178992 
L 435.058426 96.11983 
L 435.577489 95.58424 
L 435.83702 95.650508 
L 437.653739 94.217586 
L 437.91327 94.339843 
L 438.172801 94.313262 
L 438.432333 94.160069 
L 438.691864 94.307195 
L 438.951395 94.104372 
L 439.210926 94.057021 
L 439.729989 94.185379 
L 439.98952 94.159424 
L 440.249051 94.268765 
L 440.768114 93.950388 
L 441.287176 93.671338 
L 441.546708 93.567444 
L 441.806239 93.631243 
L 442.06577 93.344747 
L 442.325301 93.32259 
L 442.584833 93.158079 
L 443.103895 93.063222 
L 443.363426 92.922128 
L 443.622958 93.044287 
L 444.401551 92.564909 
L 444.661083 91.442698 
L 445.439676 91.43772 
L 445.699208 90.581553 
L 445.958739 90.393182 
L 446.477801 90.528598 
L 446.996864 88.042506 
L 447.515926 87.889306 
L 447.775458 86.964113 
L 448.034989 87.006113 
L 448.29452 86.718052 
L 448.554051 85.74981 
L 448.813583 85.741414 
L 449.073114 84.369154 
L 450.111239 83.822684 
L 450.889833 80.990002 
L 451.149364 80.317083 
L 451.408895 80.213263 
L 451.668426 79.071801 
L 451.927958 78.933328 
L 452.44702 77.076808 
L 452.706551 77.082238 
L 456.59952 63.914289 
L 456.859051 63.084326 
L 457.118583 63.142795 
L 457.897176 60.635951 
L 458.156708 60.792247 
L 458.67577 58.675059 
L 459.194833 56.697486 
L 459.454364 56.820695 
L 460.232958 54.540741 
L 461.011551 52.489195 
L 461.790145 50.026844 
L 462.049676 49.568763 
L 463.866395 43.532392 
L 464.385458 41.758308 
L 464.90452 40.321026 
L 465.164051 39.493596 
L 465.423583 39.103726 
L 465.942645 39.534328 
L 466.202176 39.546657 
L 466.721239 39.751082 
L 468.537958 40.680267 
L 468.797489 40.626996 
L 470.095145 40.873452 
L 470.354676 40.880621 
L 471.13327 41.187231 
L 472.949989 41.82225 
L 473.20952 41.75989 
L 473.728583 42.047345 
L 474.247645 42.297966 
L 474.507176 42.299193 
L 474.766708 42.056265 
L 475.28577 42.333726 
L 476.064364 42.240651 
L 476.583426 42.395466 
L 476.842958 42.211237 
L 477.102489 42.425731 
L 479.178739 41.819683 
L 479.43827 41.881675 
L 479.697801 41.688554 
L 479.957333 41.656038 
L 480.216864 41.48083 
L 480.476395 41.478384 
L 480.995458 41.031135 
L 481.254989 41.109756 
L 481.51452 40.905626 
L 481.774051 40.997106 
L 482.293114 40.833635 
L 482.552645 40.557169 
L 482.812176 40.461032 
L 483.071708 40.565644 
L 483.850301 40.23726 
L 484.109833 39.92542 
L 484.628895 39.961666 
L 485.66702 39.098482 
L 486.445614 38.414548 
L 486.705145 38.419279 
L 487.483739 38.032185 
L 487.74327 37.789805 
L 488.002801 37.739628 
L 488.781395 36.947405 
L 491.117176 35.679213 
L 491.636239 35.25829 
L 492.155301 34.94206 
L 492.414833 34.917736 
L 493.193426 34.437098 
L 493.97202 34.436219 
L 495.269676 33.565148 
L 496.04827 33.252701 
L 497.086395 32.545269 
L 499.422176 31.365076 
L 499.681708 31.029882 
L 500.20077 30.943811 
L 501.238895 30.353129 
L 502.017489 30.18898 
L 502.796083 29.932331 
L 503.315145 29.741065 
L 503.574676 29.822852 
L 503.834208 29.411276 
L 504.35327 29.07648 
L 504.612801 28.964674 
L 504.872333 28.637803 
L 505.391395 28.47771 
L 505.650926 27.907341 
L 509.284364 25.96479 
L 509.803426 25.903081 
L 510.062958 25.669805 
L 510.322489 25.694033 
L 512.65827 24.437035 
L 512.917801 24.416091 
L 513.177333 24.272842 
L 513.436864 23.996912 
L 514.474989 23.735517 
L 514.73452 23.799668 
L 514.73452 23.799668 
" clip-path="url(#p5248c7e6c6)" style="fill: none; stroke: #0072b2; stroke-width: 1.2; stroke-linecap: square"/>
   </g>
   <g id="line2d_49">
    <path d="M 390.419051 137.369046 
L 390.678583 142.658912 
L 390.938114 142.261172 
L 391.197645 139.711972 
L 391.457176 140.223186 
L 391.716708 142.077281 
L 392.23577 144.177454 
L 392.495301 145.255797 
L 393.014364 148.273606 
L 393.273895 146.598855 
L 393.533426 142.56292 
L 393.792958 143.406841 
L 394.052489 143.526122 
L 394.31202 140.072652 
L 394.571551 139.895343 
L 395.090614 141.313052 
L 395.350145 141.404378 
L 395.869208 141.852924 
L 396.128739 141.615966 
L 396.647801 142.269515 
L 396.907333 141.98262 
L 397.166864 142.402821 
L 397.685926 142.77765 
L 397.945458 139.704533 
L 398.204989 139.753746 
L 398.46452 140.096831 
L 398.724051 138.973928 
L 399.243114 139.269449 
L 399.502645 139.689115 
L 399.762176 139.881228 
L 400.281239 136.320562 
L 400.54077 136.842961 
L 400.800301 134.707132 
L 401.319364 135.030955 
L 401.578895 134.462398 
L 402.61702 128.088221 
L 402.876551 128.241106 
L 403.136083 126.853901 
L 403.395614 126.375189 
L 403.914676 126.887541 
L 404.174208 125.512733 
L 404.433739 119.517305 
L 404.69327 120.082648 
L 405.212333 118.379286 
L 405.731395 111.103394 
L 405.990926 111.535642 
L 406.250458 111.656648 
L 406.509989 110.181229 
L 407.029051 111.212177 
L 407.288583 107.11561 
L 407.548114 106.648004 
L 407.807645 105.695128 
L 408.067176 106.134352 
L 408.326708 105.957485 
L 408.586239 103.067051 
L 409.624364 100.624198 
L 409.883895 100.453608 
L 410.402958 95.054215 
L 410.662489 95.552699 
L 410.92202 92.719085 
L 411.441083 91.411119 
L 411.700614 87.841333 
L 411.960145 86.95324 
L 412.219676 86.675385 
L 412.479208 84.181942 
L 412.738739 84.789345 
L 412.99827 83.125787 
L 413.517333 78.022552 
L 413.776864 78.826921 
L 414.036395 78.635318 
L 414.295926 78.026789 
L 414.555458 75.49087 
L 414.814989 75.514821 
L 415.07452 72.961533 
L 415.334051 72.927381 
L 415.593583 71.974582 
L 415.853114 72.642304 
L 416.112645 70.080322 
L 416.372176 70.624222 
L 416.631708 70.173406 
L 416.891239 68.3513 
L 417.15077 65.523292 
L 417.410301 66.368347 
L 417.929364 66.467359 
L 418.188895 64.293687 
L 418.448426 64.231855 
L 418.707958 64.7419 
L 418.967489 64.605681 
L 419.22702 62.664212 
L 419.486551 62.575952 
L 420.005614 59.260979 
L 420.265145 59.802667 
L 420.524676 58.006307 
L 420.784208 57.747102 
L 421.043739 58.09544 
L 421.822333 53.889838 
L 422.341395 54.682926 
L 422.600926 54.91297 
L 423.119989 51.320155 
L 423.37952 51.716715 
L 423.639051 49.846246 
L 423.898583 50.156448 
L 424.158114 48.826497 
L 424.417645 48.804079 
L 424.677176 49.033887 
L 424.936708 49.445333 
L 425.45577 49.356316 
L 425.715301 47.606902 
L 426.753426 47.616305 
L 427.012958 46.496574 
L 427.272489 46.861945 
L 427.53202 45.554604 
L 428.051083 45.49814 
L 428.570145 46.467076 
L 428.829676 44.990795 
L 429.089208 45.450737 
L 429.348739 45.322464 
L 429.60827 44.041485 
L 429.867801 44.05504 
L 430.127333 42.899314 
L 430.386864 42.960338 
L 430.646395 41.209914 
L 431.165458 42.112419 
L 431.68452 42.749413 
L 431.944051 42.758421 
L 432.203583 43.148825 
L 432.463114 41.748286 
L 432.982176 42.659286 
L 433.241708 42.62115 
L 433.501239 42.945035 
L 433.76077 41.654883 
L 434.020301 41.725323 
L 434.539364 42.798389 
L 434.798895 41.420745 
L 435.058426 41.644092 
L 435.577489 39.356774 
L 435.83702 39.431371 
L 436.096551 38.768705 
L 436.615614 39.002272 
L 436.875145 39.449428 
L 437.394208 39.765689 
L 437.91327 40.174741 
L 438.172801 40.088537 
L 438.432333 38.945253 
L 438.951395 39.817575 
L 439.210926 38.555014 
L 439.470458 38.901375 
L 439.729989 37.937355 
L 439.98952 38.204359 
L 440.508583 38.42459 
L 440.768114 37.387058 
L 441.027645 37.823834 
L 441.287176 36.595446 
L 441.806239 36.997541 
L 442.06577 36.428245 
L 442.584833 36.803773 
L 443.103895 37.119481 
L 443.363426 35.999714 
L 444.401551 37.300222 
L 444.661083 36.181344 
L 444.920614 36.569522 
L 445.180145 36.66904 
L 445.439676 36.890256 
L 445.699208 35.460473 
L 446.996864 36.959935 
L 447.256395 35.47622 
L 448.034989 36.25199 
L 448.554051 34.363375 
L 448.813583 34.459924 
L 449.073114 34.927691 
L 449.332645 33.908607 
L 450.630301 34.496985 
L 450.889833 34.800723 
L 451.668426 35.1011 
L 451.927958 34.373835 
L 452.966083 35.019033 
L 453.225614 35.024437 
L 453.485145 34.221639 
L 455.042333 35.160396 
L 455.561395 35.638587 
L 456.080458 35.859366 
L 457.118583 36.264272 
L 457.378114 35.509082 
L 458.156708 36.062615 
L 458.416239 36.081959 
L 458.67577 34.94229 
L 460.232958 35.81019 
L 460.75202 36.292106 
L 461.271083 36.709001 
L 462.049676 37.324717 
L 463.087801 37.959863 
L 463.866395 38.261517 
L 464.125926 38.401544 
L 464.385458 38.345876 
L 464.90452 38.755539 
L 465.683114 39.174944 
L 465.942645 39.115671 
L 467.240301 39.739948 
L 468.278426 39.870864 
L 469.05702 40.365942 
L 469.576083 40.424738 
L 470.095145 40.701083 
L 470.354676 40.648778 
L 470.614208 40.418479 
L 471.13327 40.753111 
L 471.911864 40.571239 
L 472.171395 40.382288 
L 472.949989 40.695735 
L 473.20952 40.453262 
L 473.988114 40.806405 
L 474.766708 41.125283 
L 475.28577 41.39086 
L 477.621551 41.411285 
L 477.881083 41.319572 
L 478.140614 41.396476 
L 478.919208 41.148385 
L 479.697801 41.464748 
L 479.957333 41.656545 
L 480.476395 41.378295 
L 480.995458 41.438504 
L 481.51452 41.031651 
L 482.033583 41.158355 
L 482.293114 40.892831 
L 482.552645 40.899 
L 483.071708 40.399093 
L 483.331239 40.375826 
L 483.59077 40.090041 
L 483.850301 40.165397 
L 484.369364 39.853463 
L 484.628895 39.932511 
L 484.888426 39.71965 
L 485.407489 39.512206 
L 486.705145 38.19037 
L 488.781395 36.911167 
L 489.81952 36.242958 
L 491.376708 35.378927 
L 491.89577 35.111711 
L 492.414833 34.654213 
L 493.193426 34.299522 
L 493.712489 34.02924 
L 493.97202 34.007563 
L 495.010145 33.377054 
L 495.269676 33.162302 
L 495.788739 32.952217 
L 496.04827 32.822491 
L 497.086395 31.658855 
L 497.864989 31.273459 
L 498.384051 30.946268 
L 498.643583 30.830813 
L 498.903114 30.845269 
L 499.681708 30.543084 
L 499.941239 29.938167 
L 500.20077 29.899031 
L 500.460301 29.982755 
L 500.719833 29.693535 
L 500.979364 29.632002 
L 501.498426 29.264202 
L 501.757958 29.204304 
L 502.27702 28.833914 
L 503.574676 28.50653 
L 504.093739 28.23304 
L 504.35327 27.906345 
L 504.872333 27.790713 
L 505.910458 27.494712 
L 506.169989 27.310934 
L 506.42952 26.98138 
L 507.208114 26.478639 
L 507.467645 26.08721 
L 507.727176 25.941749 
L 507.986708 25.649379 
L 510.062958 25.376502 
L 510.58202 25.325513 
L 511.101083 25.169611 
L 511.620145 24.745 
L 512.139208 24.604665 
L 512.917801 24.068993 
L 513.177333 24.074414 
L 513.696395 23.851727 
L 514.215458 23.905094 
L 514.73452 23.799668 
L 514.73452 23.799668 
" clip-path="url(#p5248c7e6c6)" style="fill: none; stroke-dasharray: 4.44,1.92; stroke-dashoffset: 0; stroke: #e69f00; stroke-width: 1.2"/>
   </g>
   <g id="line2d_50">
    <path d="M 390.419051 99.199269 
L 390.678583 99.455922 
L 391.197645 81.654202 
L 391.457176 81.529145 
L 391.976239 76.039795 
L 392.23577 69.344877 
L 392.495301 67.485894 
L 392.754833 64.533403 
L 393.014364 65.379454 
L 393.273895 64.26672 
L 393.533426 64.302471 
L 393.792958 64.756544 
L 394.052489 66.150408 
L 394.31202 66.677104 
L 394.831083 64.100051 
L 395.090614 65.755377 
L 395.350145 66.473801 
L 396.128739 71.785206 
L 396.38827 72.270759 
L 396.647801 71.913351 
L 396.907333 73.162684 
L 397.426395 70.872468 
L 397.685926 70.921181 
L 398.204989 69.937449 
L 398.46452 70.310031 
L 398.983583 72.065514 
L 399.502645 70.224126 
L 400.281239 69.408033 
L 400.54077 69.583398 
L 401.059833 71.105811 
L 401.319364 71.275102 
L 401.578895 71.877664 
L 401.838426 71.126262 
L 402.097958 70.718257 
L 402.357489 70.54122 
L 402.61702 70.125448 
L 402.876551 70.597158 
L 403.395614 69.984937 
L 403.655145 69.453076 
L 403.914676 70.064469 
L 404.174208 69.925226 
L 404.433739 69.414811 
L 404.952801 68.946607 
L 405.212333 69.350765 
L 405.471864 68.591466 
L 405.731395 69.244922 
L 405.990926 68.864531 
L 406.250458 69.198881 
L 406.509989 69.071171 
L 406.76952 69.382056 
L 407.288583 69.095068 
L 407.548114 69.840485 
L 407.807645 69.491586 
L 408.067176 70.020751 
L 408.326708 69.772568 
L 409.105301 70.379875 
L 409.364833 70.319868 
L 409.624364 70.528189 
L 409.883895 70.334602 
L 410.143426 70.857156 
L 410.402958 70.703615 
L 410.662489 70.733952 
L 410.92202 70.567635 
L 411.181551 70.869989 
L 411.441083 71.395748 
L 411.700614 71.133408 
L 412.219676 70.164854 
L 413.517333 71.653561 
L 413.776864 71.738493 
L 414.036395 72.124461 
L 414.814989 71.312849 
L 415.07452 71.550546 
L 415.334051 71.095593 
L 415.853114 71.222263 
L 416.372176 72.129932 
L 416.631708 71.90042 
L 417.410301 72.009773 
L 417.669833 71.879423 
L 417.929364 71.586367 
L 418.188895 71.872045 
L 418.707958 71.995808 
L 419.486551 71.708243 
L 419.746083 72.115074 
L 420.005614 71.976537 
L 420.265145 71.179783 
L 420.524676 71.303954 
L 420.784208 71.165089 
L 421.043739 71.432954 
L 421.30327 71.30769 
L 421.562801 71.733758 
L 421.822333 69.52755 
L 422.341395 69.810964 
L 422.600926 70.236438 
L 423.119989 70.422016 
L 423.639051 70.374867 
L 423.898583 70.245516 
L 424.158114 70.424968 
L 424.677176 70.568172 
L 424.936708 70.721885 
L 425.45577 71.300239 
L 425.715301 71.42411 
L 426.234364 70.742638 
L 426.493895 70.965379 
L 427.012958 70.948255 
L 427.272489 71.125751 
L 427.53202 70.723777 
L 427.791551 71.005998 
L 428.051083 70.647774 
L 428.310614 70.502374 
L 428.829676 67.650343 
L 429.089208 67.699055 
L 429.348739 65.941684 
L 429.867801 66.252083 
L 430.127333 64.662275 
L 430.386864 64.88529 
L 430.646395 64.735347 
L 430.905926 64.947874 
L 431.165458 64.675211 
L 431.944051 64.403565 
L 432.203583 64.759696 
L 432.722645 64.986575 
L 433.501239 64.483521 
L 433.76077 64.697151 
L 434.020301 63.455 
L 434.539364 63.592474 
L 434.798895 64.025536 
L 435.058426 63.795487 
L 435.577489 63.791917 
L 436.096551 63.978946 
L 436.356083 64.414332 
L 436.875145 64.18144 
L 437.394208 65.001606 
L 437.653739 64.444792 
L 438.172801 65.383593 
L 438.432333 63.963217 
L 438.691864 64.023885 
L 438.951395 62.931231 
L 439.470458 63.830596 
L 439.729989 62.662216 
L 439.98952 62.986966 
L 440.249051 61.945646 
L 440.508583 62.393877 
L 440.768114 61.975769 
L 441.546708 63.159141 
L 441.806239 63.284989 
L 442.06577 63.646462 
L 442.325301 63.765929 
L 443.103895 65.067537 
L 443.363426 65.407746 
L 443.622958 65.140777 
L 444.14202 65.470613 
L 444.401551 65.472281 
L 444.661083 65.895639 
L 444.920614 65.826554 
L 445.439676 66.614119 
L 445.699208 65.045439 
L 445.958739 64.987022 
L 446.21827 65.3575 
L 446.477801 64.31503 
L 447.515926 65.15208 
L 447.775458 64.12034 
L 448.554051 64.936407 
L 448.813583 65.318 
L 449.073114 64.130834 
L 449.332645 64.489982 
L 449.851708 64.539351 
L 450.111239 64.391726 
L 450.889833 65.436356 
L 451.149364 65.411092 
L 451.408895 65.506344 
L 451.668426 64.496611 
L 452.187489 65.137054 
L 453.485145 66.668619 
L 453.744676 66.671563 
L 454.004208 66.992335 
L 454.263739 66.978823 
L 455.042333 67.906352 
L 455.301864 66.966535 
L 455.561395 66.913962 
L 455.820926 67.259179 
L 456.080458 67.30929 
L 456.339989 66.601987 
L 456.59952 66.640349 
L 456.859051 66.548708 
L 457.118583 66.338011 
L 457.897176 67.074267 
L 458.156708 67.016344 
L 458.416239 66.465482 
L 458.935301 66.875114 
L 459.194833 67.140129 
L 459.454364 66.267872 
L 459.713895 66.513381 
L 459.973426 65.426858 
L 460.232958 65.510046 
L 460.492489 64.846912 
L 460.75202 64.719475 
L 461.011551 63.865963 
L 461.530614 63.766783 
L 462.049676 61.979098 
L 462.309208 62.037487 
L 462.568739 62.243412 
L 462.82827 61.484073 
L 463.606864 62.341022 
L 464.385458 62.42072 
L 464.644989 61.746304 
L 465.164051 61.647928 
L 465.683114 60.441101 
L 465.942645 60.488783 
L 466.461708 59.278379 
L 466.721239 59.337787 
L 467.240301 59.646708 
L 468.018895 57.577421 
L 468.537958 58.185114 
L 468.797489 57.037779 
L 469.05702 56.896541 
L 469.316551 57.124959 
L 469.835614 57.073108 
L 470.095145 56.263025 
L 470.614208 56.105757 
L 471.392801 56.241675 
L 471.911864 56.761906 
L 472.430926 55.284733 
L 472.690458 55.553156 
L 472.949989 55.60847 
L 473.20952 55.798098 
L 473.728583 54.188406 
L 473.988114 54.119854 
L 474.247645 53.457911 
L 474.507176 53.476773 
L 475.545301 50.946669 
L 475.804833 51.156942 
L 476.064364 50.52154 
L 476.583426 50.641551 
L 477.102489 49.301573 
L 477.36202 48.971498 
L 477.621551 49.232787 
L 478.919208 45.885136 
L 479.43827 45.115943 
L 480.735926 42.508794 
L 480.995458 42.426058 
L 481.774051 41.784723 
L 482.033583 41.651757 
L 482.552645 41.649246 
L 483.59077 40.991604 
L 483.850301 40.715129 
L 484.109833 40.665204 
L 484.628895 40.259716 
L 485.147958 39.501872 
L 485.407489 39.572662 
L 485.66702 39.356122 
L 485.926551 39.28563 
L 486.705145 38.6701 
L 487.483739 38.204705 
L 489.300458 36.977575 
L 489.559989 36.713621 
L 489.81952 36.623915 
L 490.079051 36.228755 
L 490.338583 36.144529 
L 490.857645 35.66682 
L 491.376708 35.423822 
L 491.89577 35.150669 
L 492.155301 34.67841 
L 493.452958 34.127037 
L 493.712489 34.133956 
L 495.788739 33.191721 
L 496.826864 32.946445 
L 497.086395 32.319544 
L 498.12452 32.052823 
L 498.903114 31.282434 
L 499.162645 30.953681 
L 499.422176 30.929601 
L 500.20077 30.332405 
L 500.719833 30.228244 
L 500.979364 29.965718 
L 501.238895 29.877822 
L 501.498426 29.563784 
L 502.017489 29.315211 
L 502.796083 28.773665 
L 503.315145 28.666571 
L 504.093739 28.350894 
L 505.650926 27.303418 
L 506.169989 27.064484 
L 506.42952 27.078752 
L 508.765301 26.136345 
L 509.803426 25.978257 
L 510.58202 25.741839 
L 510.841551 25.803746 
L 511.879676 25.16183 
L 513.177333 24.629969 
L 513.436864 24.572858 
L 513.955926 24.143439 
L 514.73452 23.799668 
L 514.73452 23.799668 
" clip-path="url(#p5248c7e6c6)" style="fill: none; stroke-dasharray: 7.68,1.92,1.2,1.92; stroke-dashoffset: 0; stroke: #009e73; stroke-width: 1.2"/>
   </g>
   <g id="line2d_51">
    <path d="M 390.419051 77.297117 
L 390.678583 71.618218 
L 390.938114 87.424818 
L 391.197645 74.393282 
L 391.457176 77.168745 
L 391.716708 67.424831 
L 391.976239 66.0147 
L 392.23577 67.132508 
L 392.754833 64.561472 
L 393.014364 69.791949 
L 393.273895 71.820262 
L 393.533426 71.437525 
L 393.792958 73.388035 
L 394.052489 69.964973 
L 394.31202 71.451764 
L 394.571551 69.764462 
L 394.831083 69.812158 
L 395.090614 65.061678 
L 395.350145 63.901215 
L 395.609676 64.500505 
L 395.869208 63.236426 
L 396.128739 63.576124 
L 396.38827 66.680414 
L 396.647801 65.672965 
L 396.907333 64.091394 
L 397.166864 64.081395 
L 397.426395 65.246696 
L 398.204989 62.350961 
L 398.724051 61.598118 
L 398.983583 60.854905 
L 399.243114 60.675457 
L 399.502645 61.095194 
L 399.762176 61.155745 
L 400.021708 60.931854 
L 400.281239 62.997129 
L 400.54077 63.931535 
L 400.800301 62.97323 
L 401.319364 64.816214 
L 402.097958 65.801029 
L 402.357489 64.984414 
L 403.136083 68.646833 
L 403.395614 68.527196 
L 403.914676 70.835566 
L 404.69327 69.995871 
L 404.952801 69.192909 
L 405.212333 68.97121 
L 405.471864 69.53847 
L 405.731395 68.600188 
L 405.990926 69.954614 
L 406.250458 69.813401 
L 406.509989 71.107597 
L 406.76952 71.336707 
L 407.029051 71.072445 
L 407.288583 71.443336 
L 407.807645 73.70591 
L 408.067176 73.648866 
L 408.326708 73.251986 
L 408.586239 73.981031 
L 408.84577 74.273772 
L 409.105301 75.296082 
L 409.364833 75.057855 
L 409.624364 75.379741 
L 409.883895 76.252521 
L 410.143426 76.350385 
L 410.662489 75.973674 
L 410.92202 76.419576 
L 411.181551 76.335986 
L 411.441083 76.114726 
L 411.960145 77.618234 
L 412.219676 77.397794 
L 412.479208 77.711727 
L 412.738739 78.376874 
L 413.257801 78.500081 
L 413.517333 78.877264 
L 413.776864 79.788302 
L 414.036395 79.852173 
L 414.555458 81.29196 
L 415.07452 80.712624 
L 415.334051 81.270332 
L 415.593583 81.563639 
L 416.112645 81.606566 
L 416.631708 82.091252 
L 417.15077 83.408485 
L 417.410301 83.619563 
L 417.669833 83.594445 
L 417.929364 83.385564 
L 418.188895 84.026504 
L 418.707958 84.427498 
L 419.22702 83.746504 
L 419.486551 84.28866 
L 419.746083 84.470999 
L 420.265145 84.107084 
L 420.784208 84.431347 
L 421.562801 83.725883 
L 421.822333 84.27459 
L 422.600926 83.523641 
L 423.119989 83.9811 
L 423.37952 83.839211 
L 423.639051 83.949775 
L 424.158114 84.930485 
L 424.417645 84.962846 
L 424.677176 84.879215 
L 424.936708 85.335464 
L 425.196239 85.436123 
L 425.45577 85.105875 
L 425.715301 85.049879 
L 425.974833 84.821686 
L 426.234364 84.940826 
L 426.493895 84.901024 
L 427.272489 86.180153 
L 427.791551 86.307494 
L 428.051083 86.228272 
L 428.310614 85.999604 
L 428.570145 86.458272 
L 428.829676 86.121855 
L 429.089208 86.08398 
L 429.867801 86.990934 
L 430.386864 86.727772 
L 430.905926 87.420407 
L 431.165458 87.451846 
L 431.424989 87.834846 
L 431.944051 87.605322 
L 432.203583 87.79348 
L 432.722645 88.547576 
L 432.982176 88.357511 
L 433.241708 88.687524 
L 433.501239 88.574002 
L 433.76077 88.856309 
L 434.020301 88.638382 
L 434.539364 88.57153 
L 434.798895 88.953405 
L 435.317958 88.983223 
L 435.577489 88.964506 
L 435.83702 88.692835 
L 436.356083 88.599836 
L 436.615614 88.878203 
L 436.875145 88.826611 
L 437.394208 88.434332 
L 437.653739 88.530341 
L 437.91327 88.868396 
L 438.172801 88.951095 
L 438.951395 89.696045 
L 439.470458 89.998901 
L 440.249051 89.938828 
L 440.508583 89.971773 
L 440.768114 89.881072 
L 441.027645 90.03214 
L 441.546708 90.04982 
L 441.806239 90.387342 
L 442.325301 90.310484 
L 442.584833 88.745771 
L 442.844364 89.106264 
L 444.14202 88.322891 
L 444.401551 87.272846 
L 444.920614 87.391126 
L 445.439676 85.467823 
L 445.699208 85.657072 
L 445.958739 85.473157 
L 446.477801 83.661366 
L 446.737333 83.471764 
L 446.996864 83.789472 
L 447.256395 83.674878 
L 447.515926 82.511196 
L 447.775458 82.795507 
L 448.034989 82.806088 
L 448.29452 83.001436 
L 448.554051 82.88061 
L 449.073114 80.628077 
L 449.332645 80.373044 
L 450.630301 75.399925 
L 451.149364 75.934207 
L 451.408895 75.943678 
L 451.668426 74.790229 
L 451.927958 74.14884 
L 452.187489 74.263637 
L 452.706551 72.227578 
L 452.966083 72.510287 
L 453.225614 72.534464 
L 453.485145 71.505313 
L 453.744676 71.688104 
L 454.52327 68.512535 
L 454.782801 68.594377 
L 455.820926 65.206562 
L 456.339989 63.726589 
L 456.59952 62.734246 
L 456.859051 62.95838 
L 457.897176 59.400634 
L 458.156708 59.515877 
L 460.75202 51.134136 
L 461.011551 51.448758 
L 463.087801 44.798815 
L 463.347333 44.287956 
L 464.125926 42.000716 
L 464.385458 41.596627 
L 464.90452 40.167821 
L 465.164051 39.761891 
L 465.423583 39.103726 
L 465.942645 39.158984 
L 466.461708 39.463922 
L 466.721239 39.675659 
L 467.240301 39.863487 
L 468.278426 40.382178 
L 468.797489 40.338823 
L 469.316551 40.513146 
L 469.835614 40.735368 
L 470.614208 40.580493 
L 470.873739 40.68274 
L 471.13327 40.49101 
L 471.652333 40.839761 
L 471.911864 41.033973 
L 472.949989 40.676452 
L 473.728583 41.028612 
L 474.507176 41.444448 
L 475.28577 41.570077 
L 476.323895 41.742737 
L 477.102489 41.677755 
L 477.36202 41.754279 
L 477.621551 41.666548 
L 478.140614 41.793184 
L 479.178739 42.267047 
L 480.735926 42.508794 
L 481.51452 41.80901 
L 481.774051 41.484767 
L 482.812176 40.960942 
L 483.59077 40.567779 
L 484.109833 40.341855 
L 484.628895 39.863708 
L 485.147958 39.690388 
L 488.521864 37.042421 
L 488.781395 37.032984 
L 491.117176 35.695534 
L 491.376708 35.552834 
L 491.636239 35.564654 
L 493.712489 34.197097 
L 494.491083 33.687488 
L 495.010145 33.533126 
L 495.529208 32.984472 
L 497.605458 32.021105 
L 498.12452 31.948746 
L 498.643583 31.648125 
L 498.903114 31.309856 
L 499.422176 31.221841 
L 501.498426 30.336234 
L 502.27702 30.077374 
L 502.796083 29.884559 
L 503.055614 29.966392 
L 503.315145 29.552599 
L 503.834208 29.215629 
L 504.093739 29.102996 
L 504.35327 28.774325 
L 504.872333 28.61289 
L 505.131864 28.03964 
L 508.765301 26.084536 
L 509.284364 26.022036 
L 509.543895 25.787487 
L 509.803426 25.811565 
L 510.322489 25.488096 
L 510.58202 25.207207 
L 511.101083 25.086274 
L 511.360614 24.898035 
L 511.620145 24.884758 
L 511.879676 24.575134 
L 512.65827 24.381613 
L 512.917801 24.104286 
L 514.215458 23.800308 
L 514.474989 23.864458 
L 514.73452 23.799668 
L 514.73452 23.799668 
" clip-path="url(#p5248c7e6c6)" style="fill: none; stroke-dasharray: 1.2,1.98; stroke-dashoffset: 0; stroke: #cc79a7; stroke-width: 1.2"/>
   </g>
   <g id="patch_9">
    <path d="M 390.15952 160.390193 
L 390.15952 17.221788 
" style="fill: none; stroke: #000000; stroke-width: 0.7; stroke-linejoin: miter; stroke-linecap: square"/>
   </g>
   <g id="patch_10">
    <path d="M 390.15952 160.390193 
L 514.73452 160.390193 
" style="fill: none; stroke: #000000; stroke-width: 0.7; stroke-linejoin: miter; stroke-linecap: square"/>
   </g>
   <g id="text_52">
    <text style="font-weight: 700; font-size: 9px; font-family: 'Arial', 'DejaVu Sans', sans-serif; text-anchor: start" x="373.96477" y="13.642031" transform="rotate(-0 373.96477 13.642031)">c</text>
   </g>
   <g id="legend_2">
    <g id="line2d_52">
     <path d="M 399.48302 140.919881 
L 406.28302 140.919881 
L 413.08302 140.919881 
" style="fill: none; stroke: #0072b2; stroke-width: 1.2; stroke-linecap: square"/>
    </g>
    <g id="text_53">
     <text style="font-size: 6.8px; font-family: 'Arial', 'DejaVu Sans', sans-serif; text-anchor: start" x="418.52302" y="143.299881" transform="rotate(-0 418.52302 143.299881)">Scale</text>
    </g>
    <g id="line2d_53">
     <path d="M 399.48302 150.538693 
L 406.28302 150.538693 
L 413.08302 150.538693 
" style="fill: none; stroke-dasharray: 4.44,1.92; stroke-dashoffset: 0; stroke: #e69f00; stroke-width: 1.2"/>
    </g>
    <g id="text_54">
     <text style="font-size: 6.8px; font-family: 'Arial', 'DejaVu Sans', sans-serif; text-anchor: start" x="418.52302" y="152.918693" transform="rotate(-0 418.52302 152.918693)">Residual</text>
    </g>
    <g id="line2d_54">
     <path d="M 458.581395 140.919881 
L 465.381395 140.919881 
L 472.181395 140.919881 
" style="fill: none; stroke-dasharray: 7.68,1.92,1.2,1.92; stroke-dashoffset: 0; stroke: #009e73; stroke-width: 1.2"/>
    </g>
    <g id="text_55">
     <text style="font-size: 6.8px; font-family: 'Arial', 'DejaVu Sans', sans-serif; text-anchor: start" x="477.621395" y="143.299881" transform="rotate(-0 477.621395 143.299881)">OOD</text>
    </g>
    <g id="line2d_55">
     <path d="M 458.581395 150.538693 
L 465.381395 150.538693 
L 472.181395 150.538693 
" style="fill: none; stroke-dasharray: 1.2,1.98; stroke-dashoffset: 0; stroke: #cc79a7; stroke-width: 1.2"/>
    </g>
    <g id="text_56">
     <text style="font-size: 6.8px; font-family: 'Arial', 'DejaVu Sans', sans-serif; text-anchor: start" x="477.621395" y="152.918693" transform="rotate(-0 477.621395 152.918693)">Combined</text>
    </g>
   </g>
  </g>
 </g>
 <defs>
  <clipPath id="pbccdf3fc20">
   <rect x="47.506938" y="17.221788" width="124.575" height="143.168405"/>
  </clipPath>
  <clipPath id="p73216c2422">
   <rect x="209.595354" y="17.221788" width="124.575" height="143.168405"/>
  </clipPath>
  <clipPath id="p5248c7e6c6">
   <rect x="390.15952" y="17.221788" width="124.575" height="143.168405"/>
  </clipPath>
 </defs>
</svg>
